<svg width="87" height="24" viewBox="0 0 87 24" fill="none" xmlns="http://www.w3.org/2000/svg">
<path d="M0 0.676025H11.2033V1.93434V3.42143L11.009 5.76647L10.75 11.0285L15.5422 4.96573H23.5723L28.4292 11.2573L28.0407 0.676025H39.1792L36.4593 8.2831L37.625 7.08198L39.6325 5.59488L41.9638 4.73694L44.1656 4.45096H46.8208L49.2816 4.96573L51.2244 5.76647L52.6491 6.8532L53.5557 7.99712L54.3976 9.19823L55.1747 10.7997L55.7234 14.0141L54.8342 16.0889H48.3134H41.7048L41.6447 14.4587L41.5633 12.8285H48.9062L48.8258 11.7728L48.5484 11.218L48.271 10.6631L47.7274 9.83086L46.8839 9.27602L46.0516 8.9986H45.2193H44.3871L43.5828 9.19823L43 9.55344L42.4451 10.1083L41.9638 10.7997L41.5448 11.4954V12.4584L41.7048 15.6614V16.5193L42.7409 17.6632L44.1656 18.6356L45.7199 18.8072H47.5331L49.2816 18.1208L50.8358 16.9769L52.0015 17.6632L53.5557 18.9788L52.39 21.7242L51.2244 22.6393L49.6054 23.2685L47.7274 23.4972H46.2379H43.5828L41.3162 22.9253L39.6325 22.2389L38.0783 21.1522L36.7184 19.7795L35.747 18.4068L35.0994 16.9769L34.7756 15.6614L34.5813 14.1171V13.1448L30.7605 23.2685H25.6446L22.7304 19.2075H24.5437L21.241 14.975H22.7304L19.5572 11.2573L16.5135 15.1466H18.003L14.7651 19.2075H16.5135L13.6642 23.2685H8.41867L1.81325 5.76647L0 0.676025Z" fill="#FFF9F6"/>
<path d="M79.9772 0.676147H71.5586L62.3628 23.2114H71.2348L79.9772 0.676147Z" fill="#FFF9F6"/>
<path d="M52.9728 20.2943H53.0375L52.4547 21.7242H52.3252L52.9728 20.2943Z" fill="#FFF9F6"/>
<path d="M69.4216 0.676147H61.0029L51.8071 23.2114H60.6791L69.4216 0.676147Z" fill="#FFF9F6"/>
<path d="M81.9665 3.0698H82.096V3.07836V3.35578H82.2903V3.52736H82.4845V3.69895H82.6141V3.87054H82.8083V3.98493H82.9379V4.15652H83.2153H84.5752H84.8526V3.98493H84.9638H85.2412V3.87054H85.3707V3.69895H85.565V3.52736H85.6945V3.24995V3.24138H85.8888V2.96396V1.93444V1.65702H85.6945V1.59126V1.31384H85.565V1.19945H85.3707V1.02786H85.2412V0.856272H84.9638H84.8017L84.737 0.74188H84.7231V0.627488H84.4457H83.4096H83.1321V0.74188H83.0858H82.8083V0.913468H82.6141V1.02786H82.4198V1.14225H82.2903V1.31384H82.096V1.59126V1.76285V1.77141H81.9665V2.04883V2.79238V3.0698Z" stroke="#FFF9F6" stroke-width="0.554838"/>
<path d="M83.6036 3.24995H83.2151V3.19275V2.5636V2.10603V1.53407V1.47687V1.41968H83.585V1.56498V1.86138V2.15779H84.2512V1.86138V1.59127H83.9115L83.6036 1.58119V1.41968H84.1848H84.575V1.47687V1.59127H84.6398H84.7693V1.76285V2.22042V2.33481H84.4455V2.5064H84.5991C84.5991 2.54453 84.588 2.65673 84.6398 2.65673H84.7693V3.24995H84.4455V2.67799H84.2512V2.5064H83.6036V3.24995Z" fill="#FFF9F6"/>
<path d="M83.5711 1.56058C83.587 1.56058 83.6029 1.56058 83.6187 1.56058C83.6242 1.56058 83.6297 1.56058 83.6352 1.56058M83.6352 1.56058C83.6437 1.56058 83.6181 1.56058 83.6096 1.56058C83.595 1.56058 83.5784 1.56032 83.6035 1.56238C83.6086 1.56279 83.621 1.55836 83.6187 1.56289C83.6175 1.56539 83.6005 1.56758 83.5975 1.56855C83.5828 1.57331 83.6093 1.57054 83.6124 1.56984C83.6378 1.56408 83.6116 1.56521 83.6002 1.56521C83.5869 1.56521 83.5736 1.56571 83.5603 1.56469C83.545 1.56351 83.5607 1.56289 83.5661 1.56289C83.5776 1.56289 83.5891 1.5632 83.6006 1.56276C83.6059 1.56256 83.6215 1.56226 83.6164 1.56058C83.6119 1.55908 83.6031 1.56058 83.5987 1.56058C83.5832 1.56058 83.5678 1.56058 83.5523 1.56058C83.5458 1.56058 83.5328 1.56058 83.5328 1.56058C83.5328 1.56058 83.5522 1.56058 83.5619 1.56058C83.566 1.56058 83.6082 1.55745 83.5912 1.55878M83.6352 1.56058C83.6066 1.56394 83.5776 1.55806 83.5489 1.56173C83.5281 1.56439 83.5907 1.56273 83.6115 1.56469C83.6196 1.56546 83.6144 1.56555 83.6098 1.56649C83.6 1.56853 83.5902 1.56945 83.5801 1.56971C83.5703 1.56996 83.5407 1.57019 83.5505 1.56984C83.5617 1.56944 83.5728 1.56852 83.584 1.56804C83.5954 1.56754 83.6068 1.56752 83.6182 1.56752M83.6352 1.56058C83.6614 1.55749 83.5828 1.55826 83.5565 1.55826C83.5251 1.55826 83.6195 1.55963 83.6505 1.55479C83.6775 1.55057 83.5961 1.54923 83.5688 1.549C83.5563 1.54889 83.5668 1.54877 83.5722 1.54848C83.5926 1.54739 83.6129 1.54686 83.6334 1.54668C83.6387 1.54664 83.6504 1.54665 83.6563 1.54617C83.6583 1.546 83.6634 1.54607 83.6622 1.54437C83.6569 1.53662 83.6129 1.54202 83.6056 1.54192C83.5857 1.54166 83.5658 1.54077 83.5459 1.53986M83.5912 1.55878C83.5729 1.5602 83.5179 1.56058 83.5363 1.56058C83.5547 1.56058 83.5728 1.56019 83.5912 1.55878ZM83.5912 1.55878C83.5913 1.55877 83.5987 1.55795 83.593 1.55839C83.5745 1.55982 83.556 1.56152 83.5374 1.56238C83.528 1.56281 83.5065 1.56019 83.4983 1.56701C83.4974 1.56773 83.5247 1.56978 83.5271 1.56971C83.5393 1.56937 83.5514 1.56804 83.5635 1.56765C83.5696 1.56746 83.5841 1.57131 83.5817 1.56572C83.5805 1.56291 83.5302 1.57146 83.5256 1.57215C83.5246 1.5723 83.5087 1.57518 83.5197 1.57627C83.5412 1.57841 83.5636 1.57679 83.5853 1.57679C83.595 1.57679 83.6091 1.57902 83.6186 1.57563C83.6193 1.57537 83.6032 1.57447 83.6015 1.57447C83.5772 1.57447 83.5042 1.57447 83.5285 1.57447C83.5585 1.57447 83.6482 1.56752 83.6182 1.56752M83.6182 1.56752C83.6009 1.56752 83.5496 1.56495 83.5662 1.56971C83.5812 1.57399 83.6043 1.57004 83.6195 1.56804C83.6257 1.56722 83.6208 1.56752 83.6182 1.56752ZM83.5459 1.53986C83.5418 1.53968 83.5421 1.54006 83.5459 1.53986ZM83.5459 1.53986C83.5589 1.53922 83.5715 1.53806 83.5845 1.53742C83.6087 1.53623 83.6329 1.5357 83.6571 1.53691C83.6768 1.53789 83.6446 1.53977 83.6428 1.53999C83.611 1.54382 83.5159 1.5519 83.5478 1.5535C83.5681 1.55451 83.5887 1.55309 83.6089 1.55247C83.6214 1.55209 83.6338 1.55176 83.6463 1.55131C83.6528 1.55108 83.6687 1.55537 83.6658 1.54951C83.6646 1.54707 83.6419 1.54898 83.6401 1.549C83.6223 1.54921 83.6051 1.55193 83.5875 1.55337C83.584 1.55366 83.5752 1.55402 83.5849 1.55093C83.6017 1.54556 83.6205 1.54433 83.6365 1.53665C83.6438 1.53313 83.6202 1.5386 83.6125 1.54128C83.6107 1.54193 83.591 1.55332 83.5889 1.55209C83.5876 1.55132 83.6236 1.52028 83.627 1.51722C83.6314 1.51314 83.6151 1.51985 83.6093 1.52173C83.5895 1.52818 83.5704 1.53404 83.5498 1.53742C83.5467 1.53793 83.5351 1.54158 83.5457 1.53768C83.5651 1.53047 83.5841 1.52223 83.6034 1.51478C83.609 1.51263 83.6253 1.5051 83.62 1.50796C83.6119 1.51239 83.6049 1.51931 83.5974 1.52468C83.5865 1.53246 83.5753 1.53916 83.5628 1.54385C83.5584 1.54547 83.5486 1.54912 83.559 1.54411C83.5775 1.53524 83.5964 1.52763 83.6156 1.52044C83.626 1.51656 83.6573 1.5067 83.6463 1.5077C83.6348 1.50874 83.6233 1.51346 83.6124 1.51658C83.6003 1.52005 83.5773 1.52108 83.5673 1.52944C83.5601 1.5354 83.5853 1.52502 83.5943 1.5225C83.6169 1.51611 83.6398 1.5109 83.6632 1.50835C83.6678 1.50785 83.6814 1.50707 83.6769 1.50732C83.6531 1.50862 83.6297 1.51548 83.6061 1.51851M83.6061 1.51851C83.5891 1.5207 83.5697 1.5243 83.5523 1.52314C83.5376 1.52216 83.5796 1.51151 83.594 1.50835C83.617 1.50329 83.6405 1.50028 83.664 1.49857C83.68 1.4974 83.6587 1.50551 83.6545 1.50809C83.6392 1.51749 83.6238 1.52668 83.6082 1.53562C83.6027 1.53879 83.5872 1.54934 83.5912 1.54437C83.5991 1.53445 83.6135 1.52756 83.6243 1.5216C83.6253 1.521 83.6576 1.50515 83.6563 1.5032C83.6539 1.49963 83.6344 1.50538 83.6329 1.50577C83.61 1.51188 83.5877 1.51978 83.5647 1.52546C83.562 1.52611 83.554 1.52827 83.5567 1.52764C83.5787 1.52248 83.5998 1.51436 83.6216 1.50835C83.6344 1.50478 83.6493 1.50335 83.6617 1.49805C83.6654 1.49646 83.6536 1.49906 83.6499 1.50063C83.6326 1.50791 83.6164 1.51731 83.6005 1.52713C83.5987 1.52819 83.5752 1.54247 83.5783 1.53858C83.5956 1.51676 83.6683 1.47316 83.6463 1.49008C83.6333 1.50003 83.62 1.50982 83.6061 1.51851ZM83.6061 1.51851C83.6048 1.51933 83.5756 1.53727 83.5769 1.53137C83.5831 1.5027 83.6195 1.48739 83.6401 1.4713C83.6619 1.45422 83.5975 1.50727 83.5734 1.52095C83.548 1.53543 83.6192 1.48153 83.6474 1.47348C83.6547 1.47141 83.6396 1.48654 83.6344 1.49201C83.6208 1.5063 83.6027 1.52418 83.5835 1.53073C83.5606 1.5385 83.6203 1.49911 83.6411 1.48673C83.6499 1.4815 83.6478 1.483 83.6406 1.48776C83.6205 1.50103 83.5993 1.51139 83.5776 1.5216C83.5739 1.52332 83.563 1.52834 83.567 1.52764C83.5877 1.52404 83.608 1.51961 83.629 1.51709C83.6356 1.5163 83.6422 1.51549 83.6488 1.51478C83.6497 1.51468 83.6471 1.51556 83.6463 1.51581C83.6268 1.5213 83.6074 1.52644 83.5873 1.52893C83.5803 1.5298 83.5605 1.5333 83.5661 1.52893C83.575 1.52193 83.5936 1.52103 83.6042 1.51915C83.6138 1.51745 83.6427 1.51452 83.633 1.51452C83.6195 1.51452 83.6048 1.51863 83.5917 1.52121C83.5851 1.52252 83.5651 1.52547 83.5719 1.52584C83.5878 1.52673 83.6043 1.52578 83.6201 1.52456C83.6235 1.5243 83.6438 1.52455 83.6463 1.52018C83.6466 1.51958 83.6161 1.52542 83.6146 1.52584C83.6049 1.52855 83.594 1.53048 83.5848 1.53459C83.5782 1.53749 83.5985 1.53038 83.6048 1.52713C83.6118 1.52357 83.648 1.49558 83.6213 1.5113C83.612 1.51679 83.6028 1.52234 83.594 1.52867C83.5846 1.5355 83.5994 1.51682 83.5999 1.51606C83.6042 1.51036 83.6321 1.47434 83.6084 1.48506C83.59 1.49339 83.5823 1.50916 83.5679 1.5207C83.5493 1.53558 83.6071 1.4935 83.6277 1.48159C83.6293 1.48066 83.6395 1.4745 83.63 1.47696C83.6121 1.48162 83.5951 1.4926 83.5788 1.50114C83.5719 1.5048 83.5514 1.51656 83.5579 1.51208C83.5722 1.50217 83.589 1.49465 83.6048 1.48751C83.6136 1.48354 83.6278 1.47524 83.638 1.47593C83.6447 1.47637 83.6324 1.48836 83.628 1.49342C83.619 1.5037 83.6086 1.51319 83.5974 1.52095C83.5843 1.52998 83.5947 1.51294 83.5976 1.50899C83.6061 1.49754 83.6164 1.48776 83.6268 1.47811C83.6294 1.47572 83.6378 1.46747 83.6282 1.47232C83.6171 1.47798 83.6065 1.48518 83.5963 1.49239C83.595 1.49335 83.5807 1.50367 83.5809 1.50307C83.5865 1.4848 83.6122 1.47942 83.6268 1.47168C83.6429 1.46318 83.5978 1.49454 83.5806 1.50063C83.5762 1.50222 83.5848 1.49195 83.5878 1.48828C83.5902 1.48544 83.6057 1.46493 83.6104 1.46679C83.6126 1.46769 83.6076 1.47079 83.6061 1.47271C83.6013 1.47892 83.5992 1.48168 83.5948 1.48853C83.593 1.49137 83.5788 1.51089 83.592 1.50474C83.5959 1.50291 83.6411 1.47206 83.6354 1.46847C83.6309 1.46556 83.6047 1.49351 83.5984 1.49638C83.5849 1.50253 83.6213 1.47557 83.6262 1.46152C83.6284 1.45519 83.583 1.47149 83.5781 1.47554C83.5673 1.48446 83.5868 1.47463 83.5871 1.47451C83.6003 1.46861 83.6136 1.46318 83.627 1.45779C83.6315 1.45597 83.6441 1.44963 83.6393 1.45007C83.6254 1.45133 83.6108 1.46196 83.5992 1.46872C83.5698 1.48578 83.597 1.46373 83.6091 1.45779C83.6139 1.4554 83.6276 1.44747 83.6241 1.45161C83.6147 1.46276 83.6009 1.47218 83.5897 1.48133C83.5883 1.48245 83.5693 1.49957 83.5668 1.4978C83.5652 1.4967 83.584 1.48103 83.5842 1.48082C83.594 1.47294 83.6054 1.46621 83.6144 1.4574C83.6226 1.44933 83.6075 1.45836 83.6062 1.45933C83.5958 1.46723 83.5852 1.47515 83.5754 1.48377C83.5753 1.48379 83.5563 1.50138 83.566 1.49317C83.5771 1.48379 83.5889 1.47526 83.6002 1.46615C83.6045 1.46265 83.6223 1.4525 83.6237 1.44621C83.6246 1.44214 83.5792 1.45313 83.5765 1.45393C83.5707 1.45563 83.5538 1.45931 83.5597 1.46062C83.5693 1.46275 83.5851 1.4563 83.5945 1.45457C83.6005 1.45347 83.6186 1.45235 83.6125 1.45174C83.6035 1.45084 83.5937 1.45186 83.5848 1.4529C83.5825 1.45317 83.5756 1.45406 83.5779 1.45406C83.592 1.45406 83.6055 1.44997 83.619 1.44634C83.625 1.44472 83.6418 1.44433 83.6367 1.44068C83.6322 1.43738 83.614 1.44355 83.6102 1.44454C83.6021 1.44669 83.5442 1.46549 83.5801 1.47117C83.5921 1.47306 83.6044 1.47237 83.6156 1.46757C83.6168 1.46709 83.6377 1.45663 83.6306 1.45406C83.621 1.45065 83.6088 1.45181 83.5989 1.45174C83.5907 1.45169 83.568 1.44765 83.5743 1.4529C83.5832 1.46024 83.6176 1.45345 83.6277 1.45071C83.6405 1.44728 83.601 1.44866 83.5881 1.45174C83.5714 1.45573 83.6037 1.45843 83.606 1.45843C83.6187 1.45843 83.6447 1.4515 83.6164 1.45174C83.6053 1.45184 83.5944 1.45299 83.5837 1.45637C83.5795 1.45771 83.5683 1.46066 83.5722 1.46281C83.5849 1.46987 83.6127 1.45917 83.6225 1.45084C83.6368 1.43858 83.5834 1.44919 83.5791 1.45046C83.5745 1.45182 83.5357 1.4715 83.5595 1.46744C83.5773 1.46441 83.6425 1.4366 83.5917 1.43322C83.5795 1.4324 83.6162 1.43322 83.6284 1.43322C83.6431 1.43322 83.599 1.43303 83.5842 1.43322C83.5513 1.43362 83.6308 1.43712 83.6033 1.4354C83.6021 1.43533 83.5792 1.43165 83.5866 1.4291C83.5942 1.42646 83.6055 1.42859 83.6134 1.42859C83.6245 1.42859 83.5804 1.42627 83.5804 1.42627" stroke="#FFF9F6" stroke-width="0.00592802" stroke-linecap="round"/>
</svg>
