<svg width="32" height="32" viewBox="0 0 32 32" fill="none" xmlns="http://www.w3.org/2000/svg">
<path d="M1 16C1 13.0333 1.87973 10.1332 3.52796 7.66645C5.17618 5.19972 7.51886 3.27713 10.2597 2.14181C13.0006 1.0065 16.0166 0.709449 18.9264 1.28823C21.8361 1.86701 24.5088 3.29562 26.6066 5.3934C28.7044 7.49119 30.133 10.1639 30.7118 13.0737C31.2906 15.9834 30.9935 18.9994 29.8582 21.7403C28.7229 24.4812 26.8003 26.8238 24.3336 28.4721C21.8668 30.1203 18.9667 31 16 31C12.0218 31 8.20644 29.4197 5.3934 26.6066C2.58035 23.7936 1 19.9783 1 16ZM29 16C29 13.4288 28.2376 10.9154 26.8091 8.77759C25.3806 6.63975 23.3503 4.97351 20.9749 3.98957C18.5994 3.00563 15.9856 2.74819 13.4638 3.2498C10.9421 3.75141 8.62569 4.98954 6.80761 6.80762C4.98953 8.6257 3.7514 10.9421 3.24979 13.4638C2.74818 15.9856 3.00563 18.5995 3.98957 20.9749C4.97351 23.3503 6.63975 25.3807 8.77759 26.8091C10.9154 28.2376 13.4288 29 16 29C19.4478 29 22.7544 27.6304 25.1924 25.1924C27.6304 22.7544 29 19.4478 29 16Z" fill="black" fill-opacity="0.4"/>
<path d="M12.1299 21.59L17.7099 16L12.1299 10.41C11.9437 10.2227 11.8391 9.96921 11.8391 9.70502C11.8391 9.44084 11.9437 9.18738 12.1299 9.00002C12.3173 8.81377 12.5707 8.70923 12.8349 8.70923C13.0991 8.70923 13.3525 8.81377 13.5399 9.00002L19.8999 15.36C20.0684 15.5304 20.163 15.7604 20.163 16C20.163 16.2397 20.0684 16.4697 19.8999 16.64L13.5399 23C13.3525 23.1863 13.0991 23.2908 12.8349 23.2908C12.5707 23.2908 12.3173 23.1863 12.1299 23C11.9437 22.8127 11.8391 22.5592 11.8391 22.295C11.8391 22.0308 11.9437 21.7774 12.1299 21.59Z" fill="black" fill-opacity="0.4"/>
</svg>
