<svg width="32" height="32" viewBox="0 0 32 32" fill="none" xmlns="http://www.w3.org/2000/svg">
<path d="M31 16C31 13.0333 30.1203 10.1332 28.472 7.66645C26.8238 5.19972 24.4811 3.27713 21.7403 2.14181C18.9994 1.0065 15.9834 0.709449 13.0736 1.28823C10.1639 1.86701 7.49119 3.29562 5.3934 5.3934C3.29561 7.49119 1.867 10.1639 1.28822 13.0737C0.709442 15.9834 1.00649 18.9994 2.14181 21.7403C3.27712 24.4812 5.19971 26.8238 7.66645 28.4721C10.1332 30.1203 13.0333 31 16 31C19.9782 31 23.7936 29.4197 26.6066 26.6066C29.4196 23.7936 31 19.9783 31 16ZM3 16C3 13.4288 3.76244 10.9154 5.1909 8.77759C6.61935 6.63975 8.64968 4.97351 11.0251 3.98957C13.4006 3.00563 16.0144 2.74819 18.5362 3.2498C21.0579 3.75141 23.3743 4.98954 25.1924 6.80762C27.0105 8.6257 28.2486 10.9421 28.7502 13.4638C29.2518 15.9856 28.9944 18.5995 28.0104 20.9749C27.0265 23.3503 25.3603 25.3807 23.2224 26.8091C21.0846 28.2376 18.5712 29 16 29C12.5522 29 9.24558 27.6304 6.80761 25.1924C4.36964 22.7544 3 19.4478 3 16Z" fill="black" fill-opacity="0.4"/>
<path d="M19.87 21.59L14.29 16L19.87 10.41C20.0562 10.2227 20.1608 9.96921 20.1608 9.70502C20.1608 9.44084 20.0562 9.18738 19.87 9.00002C19.6826 8.81377 19.4292 8.70923 19.165 8.70923C18.9008 8.70923 18.6473 8.81377 18.46 9.00002L12.1 15.36C11.9314 15.5304 11.8369 15.7604 11.8369 16C11.8369 16.2397 11.9314 16.4697 12.1 16.64L18.46 23C18.6473 23.1863 18.9008 23.2908 19.165 23.2908C19.4292 23.2908 19.6826 23.1863 19.87 23C20.0562 22.8127 20.1608 22.5592 20.1608 22.295C20.1608 22.0308 20.0562 21.7774 19.87 21.59Z" fill="black" fill-opacity="0.4"/>
</svg>
