<svg width="264" height="74" viewBox="0 0 264 74" fill="none" xmlns="http://www.w3.org/2000/svg">
<path d="M0 0H34.2764V4.0802V8.90226L33.682 16.5063L32.8895 33.5689L47.551 13.9098H72.1191L86.9788 34.3108L85.79 0H119.868L111.547 24.6667L115.113 20.7719L121.255 15.9499L128.388 13.1679L135.124 12.2406H143.248L150.776 13.9098L156.72 16.5063L161.079 20.0301L163.853 23.7393L166.429 27.6341L168.806 32.8271L170.485 43.2499L167.765 49.9777H147.814H127.595L127.412 44.6917L127.162 39.4055H149.628L149.382 35.9824L148.533 34.1832L147.684 32.3841L146.021 29.6854L143.441 27.8863L140.894 26.9868H138.348H135.802L133.341 27.6341L131.558 28.7859L129.86 30.585L128.388 32.8271L127.106 35.0828V38.2055L127.595 48.5915V51.3734L130.765 55.0827L135.124 58.2356L139.879 58.792H145.427L150.776 56.5664L155.532 52.8571L159.098 55.0827L163.853 59.3484L160.287 68.2506L156.72 71.218L151.767 73.2581L146.021 74H141.464H133.341L126.407 72.1454L121.255 69.9198L116.5 66.396L112.339 61.9449L109.367 57.4937L107.386 52.8571L106.395 48.5915L105.801 43.584V40.4311L94.1115 73.2581H78.4592L69.5434 60.0902H75.091L64.9864 46.3659H69.5434L59.8351 34.3108L50.523 46.9223H55.08L45.1735 60.0902H50.523L41.8053 73.2581H25.7568L5.54762 16.5063L0 0Z" fill="#DF1D1D"/>
<path d="M244.691 0H218.934L190.8 73.0727H217.943L244.691 0Z" fill="#DF1D1D"/>
<path d="M162.069 63.6139H162.267L160.484 68.2505H160.088L162.069 63.6139Z" fill="#DF1D1D"/>
<path d="M212.393 0H186.636L158.502 73.0727H185.645L212.393 0Z" fill="#DF1D1D"/>
</svg>
